<svg height="512pt" viewBox="0 -61 512 512" width="512pt" xmlns="http://www.w3.org/2000/svg"><path d="m456 310h-400c-8.285156 0-15-6.714844-15-15v-100c0-8.285156 6.714844-15 15-15 20.816406 0 32.027344 6.730469 41.035156 12.140625 7.605469 4.5625 13.097656 7.859375 25.597656 7.859375 12.507813 0 18-3.296875 25.605469-7.859375 9.011719-5.410156 20.226563-12.140625 41.042969-12.140625 20.8125 0 32.023438 6.730469 41.03125 12.140625 7.597656 4.5625 13.085938 7.859375 25.582031 7.859375 12.511719 0 18.011719-3.296875 25.617188-7.863281 9.015625-5.40625 20.230469-12.136719 41.054687-12.136719 20.832032 0 32.054688 6.730469 41.070313 12.136719 7.617187 4.5625 13.121093 7.863281 25.644531 7.863281 12.527344 0 18.03125-3.300781 25.648438-7.863281 9.015624-5.410157 20.238281-12.136719 41.070312-12.136719 8.285156 0 15 6.714844 15 15v100c0 8.285156-6.714844 15-15 15zm0 0" fill="#fff4bc"/><path d="m456 180c-20.832031 0-32.054688 6.730469-41.070312 12.136719-7.617188 4.5625-13.121094 7.863281-25.648438 7.863281-12.523438 0-18.027344-3.300781-25.644531-7.863281-9.015625-5.410157-20.238281-12.136719-41.070313-12.136719-20.824218 0-32.039062 6.730469-41.054687 12.136719-7.585938 4.550781-13.074219 7.84375-25.511719 7.859375v110.003906h200c8.285156 0 15-6.714844 15-15v-100c0-8.285156-6.714844-15-15-15zm0 0" fill="#ffeb8a"/><path d="m456 150h-400c-7.308594 0-13.550781-5.265625-14.785156-12.46875s2.902344-14.246094 9.792968-16.675781l340-120c4.359376-1.539063 9.1875-.980469 13.082032 1.511719 18.195312 11.652343 33.191406 26.65625 44.574218 44.597656 22.171876 34.9375 23.488282 70.765625 22.304688 89.007812-.511719 7.890625-7.0625 14.027344-14.96875 14.027344zm0 0" fill="#ffeb8a"/><path d="m448.664062 46.964844c-11.382812-17.941406-26.378906-32.945313-44.574218-44.597656-3.894532-2.492188-8.722656-3.050782-13.082032-1.511719l-135.007812 47.648437v101.496094h200c7.90625 0 14.457031-6.136719 14.96875-14.027344 1.1875-18.246094-.132812-54.070312-22.304688-89.007812zm0 0" fill="#ffdc32"/><path d="m41.054688 134.945312c-.023438.023438-.035157.035157-.054688.054688v76.152344c24.105469-3.191406 30.484375.636718 40.597656 6.707031 9.007813 5.410156 20.21875 12.140625 41.035156 12.140625 20.816407 0 32.03125-6.730469 41.042969-12.140625 7.605469-4.5625 13.097657-7.859375 25.605469-7.859375 12.496094 0 17.984375 3.296875 25.582031 7.859375 9.007813 5.410156 20.21875 12.140625 41.03125 12.140625 20.820313 0 32.039063-6.730469 41.050781-12.136719 7.609376-4.566406 13.105469-7.863281 25.621094-7.863281 12.527344 0 18.027344 3.300781 25.644532 7.863281 9.015624 5.410157 20.238281 12.136719 41.070312 12.136719s32.054688-6.730469 41.074219-12.136719c10.125-6.070312 16.515625-9.898437 40.644531-6.714843v-75.714844zm0 0" fill="#ffdc32"/><path d="m256 229.996094c20.753906-.019532 31.949219-6.734375 40.949219-12.132813 7.605469-4.566406 13.105469-7.863281 25.617187-7.863281 12.527344 0 18.027344 3.300781 25.644532 7.863281 9.019531 5.410157 20.242187 12.136719 41.070312 12.136719 20.832031 0 32.054688-6.730469 41.074219-12.136719 10.125-6.070312 16.515625-9.898437 40.644531-6.714843v-75.714844l-215-.242188zm0 0" fill="#fac814"/><path d="m417 390h-322c-52.382812 0-95-42.617188-95-95 0-8.285156 6.714844-15 15-15h482c8.285156 0 15 6.714844 15 15 0 52.382812-42.617188 95-95 95zm0 0" fill="#d2ebf5"/><path d="m497 280h-241v110h161c52.382812 0 95-42.617188 95-95 0-8.285156-6.714844-15-15-15zm0 0" fill="#b9d2dc"/></svg>